<?xml version="1.0" standalone="no"?>
 <!DOCTYPE svg PUBLIC "-//W3C//DTD SVG 1.1//EN" 
 "http://www.w3.org/Graphics/SVG/1.1/DTD/svg11.dtd"> 
<svg
  xmlns:svg="http://www.w3.org/2000/svg"
  xmlns="http://www.w3.org/2000/svg"
  xmlns:xlink="http://www.w3.org/1999/xlink"
  version="1.1"
  width="29.700220cm" height="21.000720cm" viewBox="0 0 116930 82680">
<title>SVG Picture created as lm2596-step-down-psu-Eco1_User.svg date 2021/02/16 09:58:21 </title>
  <desc>Picture generated by PCBNEW </desc>
<g style="fill:#000000; fill-opacity:1;stroke:#000000; stroke-opacity:1;
stroke-linecap:round; stroke-linejoin:round;"
 transform="translate(0 0) scale(1 1)">
</g>
<g style="fill:#000000; fill-opacity:0.0; 
stroke:#000000; stroke-width:-0.000393701; stroke-opacity:1; 
stroke-linecap:round; stroke-linejoin:round;">
</g>
<g style="fill:#000000; fill-opacity:0.0; 
stroke:#000000; stroke-width:78.7402; stroke-opacity:1; 
stroke-linecap:round; stroke-linejoin:round;">
<text x="67508" y="42242.9"
textLength="1237.35" font-size="524.934" lengthAdjust="spacingAndGlyphs"
text-anchor="middle" opacity="0">PWR</text>
<path d="M68032 42224
L68032 41830
L67882 41830
L67845 41849
L67826 41867
L67807 41905
L67807 41961
L67826 41999
L67845 42017
L67882 42036
L68032 42036
" />
<path d="M67676 41830
L67582 42224
L67508 41942
L67433 42224
L67339 41830
" />
<path d="M66964 42224
L67095 42036
" />
<path d="M67189 42224
L67189 41830
L67039 41830
L67001 41849
L66983 41867
L66964 41905
L66964 41961
L66983 41999
L67001 42017
L67039 42036
L67189 42036
" />
<text x="60025" y="30773.9"
textLength="1039.74" font-size="524.934" lengthAdjust="spacingAndGlyphs"
text-anchor="middle" opacity="0">VIN</text>
<path d="M60456 30361
L60324 30755
L60193 30361
" />
<path d="M60062 30755
L60062 30361
" />
<path d="M59875 30755
L59875 30361
L59650 30755
L59650 30361
" />
<text x="60025" y="34773.9"
textLength="1302.21" font-size="524.934" lengthAdjust="spacingAndGlyphs"
text-anchor="middle" opacity="0">GND</text>
<path d="M60324 34380
L60362 34361
L60418 34361
L60474 34380
L60512 34417
L60531 34455
L60549 34530
L60549 34586
L60531 34661
L60512 34698
L60474 34736
L60418 34755
L60381 34755
L60324 34736
L60306 34717
L60306 34586
L60381 34586
" />
<path d="M60137 34755
L60137 34361
L59912 34755
L59912 34361
" />
<path d="M59725 34755
L59725 34361
L59631 34361
L59575 34380
L59537 34417
L59518 34455
L59500 34530
L59500 34586
L59518 34661
L59537 34698
L59575 34736
L59631 34755
L59725 34755
" />
<text x="78066" y="41639.1"
textLength="1208.47" font-size="524.934" lengthAdjust="spacingAndGlyphs"
text-anchor="middle" opacity="0">F.B.</text>
<path d="M78394 41414
L78525 41414
" />
<path d="M78525 41620
L78525 41226
L78337 41226
" />
<path d="M78187 41582
L78169 41601
L78187 41620
L78206 41601
L78187 41582
L78187 41620
" />
<path d="M77869 41414
L77812 41432
L77794 41451
L77775 41489
L77775 41545
L77794 41582
L77812 41601
L77850 41620
L78000 41620
L78000 41226
L77869 41226
L77831 41245
L77812 41264
L77794 41301
L77794 41339
L77812 41376
L77831 41395
L77869 41414
L78000 41414
" />
<path d="M77606 41582
L77587 41601
L77606 41620
L77625 41601
L77606 41582
L77606 41620
" />
<text x="64312.4" y="26773.9"
textLength="2239.59" font-size="524.934" lengthAdjust="spacingAndGlyphs"
text-anchor="end" opacity="0">EN/~DIS~</text>
<path d="M66407 26548
L66275 26548
" />
<path d="M66219 26755
L66407 26755
L66407 26361
L66219 26361
" />
<path d="M66050 26755
L66050 26361
L65825 26755
L65825 26361
" />
<path d="M65357 26342
L65694 26848
" />
<path d="M65319 26191
L64926 26191
" />
<path d="M65225 26755
L65225 26361
L65132 26361
L65075 26380
L65038 26417
L65019 26455
L65001 26530
L65001 26586
L65019 26661
L65038 26698
L65075 26736
L65132 26755
L65225 26755
" />
<path d="M64926 26191
L64738 26191
" />
<path d="M64832 26755
L64832 26361
" />
<path d="M64738 26191
L64363 26191
" />
<path d="M64663 26736
L64607 26755
L64513 26755
L64476 26736
L64457 26717
L64438 26680
L64438 26642
L64457 26605
L64476 26586
L64513 26567
L64588 26548
L64626 26530
L64644 26511
L64663 26473
L64663 26436
L64644 26398
L64626 26380
L64588 26361
L64494 26361
L64438 26380
" />
<text x="61812.4" y="40773.9"
textLength="1564.68" font-size="524.934" lengthAdjust="spacingAndGlyphs"
text-anchor="end" opacity="0">VOUT</text>
<path d="M63288 40361
L63157 40755
L63025 40361
" />
<path d="M62819 40361
L62744 40361
L62707 40380
L62669 40417
L62650 40492
L62650 40623
L62669 40698
L62707 40736
L62744 40755
L62819 40755
L62857 40736
L62894 40698
L62913 40623
L62913 40492
L62894 40417
L62857 40380
L62819 40361
" />
<path d="M62482 40361
L62482 40680
L62463 40717
L62444 40736
L62407 40755
L62332 40755
L62294 40736
L62276 40717
L62257 40680
L62257 40361
" />
<path d="M62126 40361
L61901 40361
" />
<path d="M62013 40755
L62013 40361
" />
<text x="64417.4" y="41430.9"
textLength="2127.11" font-size="524.934" lengthAdjust="spacingAndGlyphs"
text-anchor="start" opacity="0">0.1V/A</text>
<path d="M64197 41018
L64160 41018
L64122 41037
L64103 41055
L64085 41093
L64066 41168
L64066 41262
L64085 41337
L64103 41374
L64122 41393
L64160 41412
L64197 41412
L64235 41393
L64253 41374
L64272 41337
L64291 41262
L64291 41168
L64272 41093
L64253 41055
L64235 41037
L64197 41018
" />
<path d="M63897 41374
L63878 41393
L63897 41412
L63916 41393
L63897 41374
L63897 41412
" />
<path d="M63503 41412
L63728 41412
" />
<path d="M63616 41412
L63616 41018
L63653 41074
L63691 41112
L63728 41130
" />
<path d="M63391 41018
L63260 41412
L63128 41018
" />
<path d="M62716 40999
L63053 41505
" />
<path d="M62603 41299
L62416 41299
" />
<path d="M62641 41412
L62510 41018
L62379 41412
" />
<text x="65008" y="42242.9"
textLength="589.801" font-size="524.934" lengthAdjust="spacingAndGlyphs"
text-anchor="middle" opacity="0">-</text>
<path d="M65157 42074
L64858 42074
" />
<text x="66008" y="42242.9"
textLength="589.801" font-size="524.934" lengthAdjust="spacingAndGlyphs"
text-anchor="middle" opacity="0">+</text>
<path d="M66157 42074
L65858 42074
" />
<path d="M66008 42224
L66008 41924
" />
<text x="79918.6" y="28345.9"
textLength="477.315" font-size="524.934" lengthAdjust="spacingAndGlyphs"
text-anchor="end" opacity="0">2</text>
<path d="M80269 27970
L80250 27952
L80213 27933
L80119 27933
L80082 27952
L80063 27970
L80044 28008
L80044 28045
L80063 28102
L80288 28327
L80044 28327
" />
<text x="79918.6" y="32298.9"
textLength="477.315" font-size="524.934" lengthAdjust="spacingAndGlyphs"
text-anchor="end" opacity="0">2</text>
<path d="M80269 31923
L80250 31905
L80213 31886
L80119 31886
L80082 31905
L80063 31923
L80044 31961
L80044 31998
L80063 32055
L80288 32280
L80044 32280
" />
<text x="79918.6" y="26845.9"
textLength="477.315" font-size="524.934" lengthAdjust="spacingAndGlyphs"
text-anchor="end" opacity="0">1</text>
<path d="M80044 26827
L80269 26827
" />
<path d="M80157 26827
L80157 26433
L80194 26489
L80232 26527
L80269 26545
" />
<text x="79918.6" y="30798.9"
textLength="477.315" font-size="524.934" lengthAdjust="spacingAndGlyphs"
text-anchor="end" opacity="0">1</text>
<path d="M80044 30780
L80269 30780
" />
<path d="M80157 30780
L80157 30386
L80194 30442
L80232 30480
L80269 30498
" />
<text x="79656.6" y="40654.9"
textLength="1564.68" font-size="524.934" lengthAdjust="spacingAndGlyphs"
text-anchor="end" opacity="0">VOUT</text>
<path d="M81132 40242
L81001 40636
L80870 40242
" />
<path d="M80663 40242
L80588 40242
L80551 40261
L80513 40298
L80495 40373
L80495 40504
L80513 40579
L80551 40617
L80588 40636
L80663 40636
L80701 40617
L80738 40579
L80757 40504
L80757 40373
L80738 40298
L80701 40261
L80663 40242
" />
<path d="M80326 40242
L80326 40561
L80307 40598
L80288 40617
L80251 40636
L80176 40636
L80138 40617
L80120 40598
L80101 40561
L80101 40242
" />
<path d="M79970 40242
L79745 40242
" />
<path d="M79857 40636
L79857 40242
" />
<text x="79656.6" y="38654.9"
textLength="1639.67" font-size="524.934" lengthAdjust="spacingAndGlyphs"
text-anchor="end" opacity="0">CRS2</text>
<path d="M80926 38598
L80945 38617
L81001 38636
L81038 38636
L81095 38617
L81132 38579
L81151 38542
L81170 38467
L81170 38411
L81151 38336
L81132 38298
L81095 38261
L81038 38242
L81001 38242
L80945 38261
L80926 38279
" />
<path d="M80532 38636
L80663 38448
" />
<path d="M80757 38636
L80757 38242
L80607 38242
L80570 38261
L80551 38279
L80532 38317
L80532 38373
L80551 38411
L80570 38429
L80607 38448
L80757 38448
" />
<path d="M80382 38617
L80326 38636
L80232 38636
L80195 38617
L80176 38598
L80157 38561
L80157 38523
L80176 38486
L80195 38467
L80232 38448
L80307 38429
L80345 38411
L80363 38392
L80382 38354
L80382 38317
L80363 38279
L80345 38261
L80307 38242
L80213 38242
L80157 38261
" />
<path d="M80007 38279
L79988 38261
L79951 38242
L79857 38242
L79820 38261
L79801 38279
L79782 38317
L79782 38354
L79801 38411
L80026 38636
L79782 38636
" />
<text x="79656.6" y="39654.9"
textLength="1639.67" font-size="524.934" lengthAdjust="spacingAndGlyphs"
text-anchor="end" opacity="0">CRS1</text>
<path d="M80926 39598
L80945 39617
L81001 39636
L81038 39636
L81095 39617
L81132 39579
L81151 39542
L81170 39467
L81170 39411
L81151 39336
L81132 39298
L81095 39261
L81038 39242
L81001 39242
L80945 39261
L80926 39279
" />
<path d="M80532 39636
L80663 39448
" />
<path d="M80757 39636
L80757 39242
L80607 39242
L80570 39261
L80551 39279
L80532 39317
L80532 39373
L80551 39411
L80570 39429
L80607 39448
L80757 39448
" />
<path d="M80382 39617
L80326 39636
L80232 39636
L80195 39617
L80176 39598
L80157 39561
L80157 39523
L80176 39486
L80195 39467
L80232 39448
L80307 39429
L80345 39411
L80363 39392
L80382 39354
L80382 39317
L80363 39279
L80345 39261
L80307 39242
L80213 39242
L80157 39261
" />
<path d="M79782 39636
L80007 39636
" />
<path d="M79895 39636
L79895 39242
L79932 39298
L79970 39336
L80007 39354
" />
<text x="79656.6" y="37654.9"
textLength="1770.9" font-size="524.934" lengthAdjust="spacingAndGlyphs"
text-anchor="end" opacity="0">FINE1</text>
<path d="M81151 37429
L81282 37429
" />
<path d="M81282 37636
L81282 37242
L81095 37242
" />
<path d="M80945 37636
L80945 37242
" />
<path d="M80757 37636
L80757 37242
L80532 37636
L80532 37242
" />
<path d="M80345 37429
L80213 37429
" />
<path d="M80157 37636
L80345 37636
L80345 37242
L80157 37242
" />
<path d="M79782 37636
L80007 37636
" />
<path d="M79895 37636
L79895 37242
L79932 37298
L79970 37336
L80007 37354
" />
<text x="79656.6" y="36654.9"
textLength="1770.9" font-size="524.934" lengthAdjust="spacingAndGlyphs"
text-anchor="end" opacity="0">FINE2</text>
<path d="M81151 36429
L81282 36429
" />
<path d="M81282 36636
L81282 36242
L81095 36242
" />
<path d="M80945 36636
L80945 36242
" />
<path d="M80757 36636
L80757 36242
L80532 36636
L80532 36242
" />
<path d="M80345 36429
L80213 36429
" />
<path d="M80157 36636
L80345 36636
L80345 36242
L80157 36242
" />
<path d="M80007 36279
L79988 36261
L79951 36242
L79857 36242
L79820 36261
L79801 36279
L79782 36317
L79782 36354
L79801 36411
L80026 36636
L79782 36636
" />
<text x="79656.6" y="35654.9"
textLength="1752.16" font-size="524.934" lengthAdjust="spacingAndGlyphs"
text-anchor="end" opacity="0">24.1V</text>
<path d="M81282 35279
L81263 35261
L81226 35242
L81132 35242
L81095 35261
L81076 35279
L81057 35317
L81057 35354
L81076 35411
L81301 35636
L81057 35636
" />
<path d="M80720 35373
L80720 35636
" />
<path d="M80813 35223
L80907 35504
L80663 35504
" />
<path d="M80513 35598
L80495 35617
L80513 35636
L80532 35617
L80513 35598
L80513 35636
" />
<path d="M80120 35636
L80345 35636
" />
<path d="M80232 35636
L80232 35242
L80270 35298
L80307 35336
L80345 35354
" />
<path d="M80007 35242
L79876 35636
L79745 35242
" />
<text x="79656.6" y="34654.9"
textLength="1752.16" font-size="524.934" lengthAdjust="spacingAndGlyphs"
text-anchor="end" opacity="0">19.2V</text>
<path d="M81057 34636
L81282 34636
" />
<path d="M81170 34636
L81170 34242
L81207 34298
L81245 34336
L81282 34354
" />
<path d="M80870 34636
L80795 34636
L80757 34617
L80738 34598
L80701 34542
L80682 34467
L80682 34317
L80701 34279
L80720 34261
L80757 34242
L80832 34242
L80870 34261
L80888 34279
L80907 34317
L80907 34411
L80888 34448
L80870 34467
L80832 34486
L80757 34486
L80720 34467
L80701 34448
L80682 34411
" />
<path d="M80513 34598
L80495 34617
L80513 34636
L80532 34617
L80513 34598
L80513 34636
" />
<path d="M80345 34279
L80326 34261
L80288 34242
L80195 34242
L80157 34261
L80138 34279
L80120 34317
L80120 34354
L80138 34411
L80363 34636
L80120 34636
" />
<path d="M80007 34242
L79876 34636
L79745 34242
" />
<text x="76475.4" y="34654.9"
textLength="1752.16" font-size="524.934" lengthAdjust="spacingAndGlyphs"
text-anchor="start" opacity="0">15.2V</text>
<path d="M76124 34636
L76349 34636
" />
<path d="M76236 34636
L76236 34242
L76274 34298
L76311 34336
L76349 34354
" />
<path d="M75768 34242
L75955 34242
L75974 34429
L75955 34411
L75918 34392
L75824 34392
L75786 34411
L75768 34429
L75749 34467
L75749 34561
L75768 34598
L75786 34617
L75824 34636
L75918 34636
L75955 34617
L75974 34598
" />
<path d="M75580 34598
L75561 34617
L75580 34636
L75599 34617
L75580 34598
L75580 34636
" />
<path d="M75411 34279
L75393 34261
L75355 34242
L75261 34242
L75224 34261
L75205 34279
L75186 34317
L75186 34354
L75205 34411
L75430 34636
L75186 34636
" />
<path d="M75074 34242
L74943 34636
L74811 34242
" />
<text x="76475.4" y="35654.9"
textLength="1752.16" font-size="524.934" lengthAdjust="spacingAndGlyphs"
text-anchor="start" opacity="0">12.3V</text>
<path d="M76124 35636
L76349 35636
" />
<path d="M76236 35636
L76236 35242
L76274 35298
L76311 35336
L76349 35354
" />
<path d="M75974 35279
L75955 35261
L75918 35242
L75824 35242
L75786 35261
L75768 35279
L75749 35317
L75749 35354
L75768 35411
L75993 35636
L75749 35636
" />
<path d="M75580 35598
L75561 35617
L75580 35636
L75599 35617
L75580 35598
L75580 35636
" />
<path d="M75430 35242
L75186 35242
L75318 35392
L75261 35392
L75224 35411
L75205 35429
L75186 35467
L75186 35561
L75205 35598
L75224 35617
L75261 35636
L75374 35636
L75411 35617
L75430 35598
" />
<path d="M75074 35242
L74943 35636
L74811 35242
" />
<text x="76475.4" y="37654.9"
textLength="1377.2" font-size="524.934" lengthAdjust="spacingAndGlyphs"
text-anchor="start" opacity="0">7.5V</text>
<path d="M76368 37242
L76105 37242
L76274 37636
" />
<path d="M75955 37598
L75936 37617
L75955 37636
L75974 37617
L75955 37598
L75955 37636
" />
<path d="M75580 37242
L75768 37242
L75786 37429
L75768 37411
L75730 37392
L75636 37392
L75599 37411
L75580 37429
L75561 37467
L75561 37561
L75580 37598
L75599 37617
L75636 37636
L75730 37636
L75768 37617
L75786 37598
" />
<path d="M75449 37242
L75318 37636
L75186 37242
" />
<text x="76475.4" y="39654.9"
textLength="1377.2" font-size="524.934" lengthAdjust="spacingAndGlyphs"
text-anchor="start" opacity="0">3.3V</text>
<path d="M76368 39242
L76124 39242
L76255 39392
L76199 39392
L76161 39411
L76143 39429
L76124 39467
L76124 39561
L76143 39598
L76161 39617
L76199 39636
L76311 39636
L76349 39617
L76368 39598
" />
<path d="M75955 39598
L75936 39617
L75955 39636
L75974 39617
L75955 39598
L75955 39636
" />
<path d="M75805 39242
L75561 39242
L75693 39392
L75636 39392
L75599 39411
L75580 39429
L75561 39467
L75561 39561
L75580 39598
L75599 39617
L75636 39636
L75749 39636
L75786 39617
L75805 39598
" />
<path d="M75449 39242
L75318 39636
L75186 39242
" />
</g>
<g style="fill:#000000; fill-opacity:0.0; 
stroke:#000000; stroke-width:19.685; stroke-opacity:1; 
stroke-linecap:round; stroke-linejoin:round;">
<path d="M58025 42577
L81840 42577
" />
<path d="M58025 25577
L81840 25577
" />
</g>
<g style="fill:#000000; fill-opacity:0.0; 
stroke:#000000; stroke-width:78.7402; stroke-opacity:1; 
stroke-linecap:round; stroke-linejoin:round;">
<text x="76475.4" y="36654.9"
textLength="1377.2" font-size="524.934" lengthAdjust="spacingAndGlyphs"
text-anchor="start" opacity="0">9.2V</text>
<path d="M76311 36636
L76236 36636
L76199 36617
L76180 36598
L76143 36542
L76124 36467
L76124 36317
L76143 36279
L76161 36261
L76199 36242
L76274 36242
L76311 36261
L76330 36279
L76349 36317
L76349 36411
L76330 36448
L76311 36467
L76274 36486
L76199 36486
L76161 36467
L76143 36448
L76124 36411
" />
<path d="M75955 36598
L75936 36617
L75955 36636
L75974 36617
L75955 36598
L75955 36636
" />
<path d="M75786 36279
L75768 36261
L75730 36242
L75636 36242
L75599 36261
L75580 36279
L75561 36317
L75561 36354
L75580 36411
L75805 36636
L75561 36636
" />
<path d="M75449 36242
L75318 36636
L75186 36242
" />
<text x="76475.4" y="38654.9"
textLength="1377.2" font-size="524.934" lengthAdjust="spacingAndGlyphs"
text-anchor="start" opacity="0">5.1V</text>
<path d="M76143 38242
L76330 38242
L76349 38429
L76330 38411
L76293 38392
L76199 38392
L76161 38411
L76143 38429
L76124 38467
L76124 38561
L76143 38598
L76161 38617
L76199 38636
L76293 38636
L76330 38617
L76349 38598
" />
<path d="M75955 38598
L75936 38617
L75955 38636
L75974 38617
L75955 38598
L75955 38636
" />
<path d="M75561 38636
L75786 38636
" />
<path d="M75674 38636
L75674 38242
L75711 38298
L75749 38336
L75786 38354
" />
<path d="M75449 38242
L75318 38636
L75186 38242
" />
<text x="76475.4" y="40654.9"
textLength="1377.2" font-size="524.934" lengthAdjust="spacingAndGlyphs"
text-anchor="start" opacity="0">1.8V</text>
<path d="M76124 40636
L76349 40636
" />
<path d="M76236 40636
L76236 40242
L76274 40298
L76311 40336
L76349 40354
" />
<path d="M75955 40598
L75936 40617
L75955 40636
L75974 40617
L75955 40598
L75955 40636
" />
<path d="M75711 40411
L75749 40392
L75768 40373
L75786 40336
L75786 40317
L75768 40279
L75749 40261
L75711 40242
L75636 40242
L75599 40261
L75580 40279
L75561 40317
L75561 40336
L75580 40373
L75599 40392
L75636 40411
L75711 40411
L75749 40429
L75768 40448
L75786 40486
L75786 40561
L75768 40598
L75749 40617
L75711 40636
L75636 40636
L75599 40617
L75580 40598
L75561 40561
L75561 40486
L75580 40448
L75599 40429
L75636 40411
" />
<path d="M75449 40242
L75318 40636
L75186 40242
" />
</g>
<g style="fill:#000000; fill-opacity:0.0; 
stroke:#000000; stroke-width:19.685; stroke-opacity:1; 
stroke-linecap:round; stroke-linejoin:round;">
<path d="M58025 25577
L58025 42577
" />
<path d="M81840 25577
L81840 42577
" />
</g>
<g style="fill:#000000; fill-opacity:0.0; 
stroke:#000000; stroke-width:78.7402; stroke-opacity:1; 
stroke-linecap:round; stroke-linejoin:round;">
<g transform="rotate(-90 80834.7 27600)">
<text x="80834.7" y="27796.9"
textLength="2370.83" font-size="524.934" lengthAdjust="spacingAndGlyphs"
text-anchor="middle" opacity="0">COARSE</text>
</g>
<path d="M80694 28415
L80675 28434
L80656 28490
L80656 28528
L80675 28584
L80712 28621
L80750 28640
L80825 28659
L80881 28659
L80956 28640
L80994 28621
L81031 28584
L81050 28528
L81050 28490
L81031 28434
L81012 28415
" />
<path d="M81050 28171
L81050 28096
L81031 28059
L80994 28021
L80919 28003
L80787 28003
L80712 28021
L80675 28059
L80656 28096
L80656 28171
L80675 28209
L80712 28246
L80787 28265
L80919 28265
L80994 28246
L81031 28209
L81050 28171
" />
<path d="M80769 27853
L80769 27665
" />
<path d="M80656 27890
L81050 27759
L80656 27628
" />
<path d="M80656 27271
L80844 27403
" />
<path d="M80656 27496
L81050 27496
L81050 27346
L81031 27309
L81012 27290
L80975 27271
L80919 27271
L80881 27290
L80862 27309
L80844 27346
L80844 27496
" />
<path d="M80675 27121
L80656 27065
L80656 26971
L80675 26934
L80694 26915
L80731 26896
L80769 26896
L80806 26915
L80825 26934
L80844 26971
L80862 27046
L80881 27084
L80900 27103
L80937 27121
L80975 27121
L81012 27103
L81031 27084
L81050 27046
L81050 26953
L81031 26896
" />
<path d="M80862 26728
L80862 26597
" />
<path d="M80656 26540
L80656 26728
L81050 26728
L81050 26540
" />
<g transform="rotate(-90 80834.7 31553)">
<text x="80834.7" y="31749.9"
textLength="1395.95" font-size="524.934" lengthAdjust="spacingAndGlyphs"
text-anchor="middle" opacity="0">FINE</text>
</g>
<path d="M80862 31974
L80862 32106
" />
<path d="M80656 32106
L81050 32106
L81050 31918
" />
<path d="M80656 31768
L81050 31768
" />
<path d="M80656 31581
L81050 31581
L80656 31356
L81050 31356
" />
<path d="M80862 31168
L80862 31037
" />
<path d="M80656 30981
L80656 31168
L81050 31168
L81050 30981
" />
</g>
<g style="fill:#000000; fill-opacity:0.0; 
stroke:#000000; stroke-width:19.685; stroke-opacity:1; 
stroke-linecap:round; stroke-linejoin:round;">
<path d="M58025 25577
L81840 25577
" />
<path d="M81840 25577
L81840 42577
" />
<path d="M58025 25577
L58025 42577
" />
<path d="M58025 42577
L81840 42577
" />
<g >
</g>
<g >
</g>
<g >
</g>
<g >
</g>
<g >
</g>
<g >
</g>
<g >
</g>
<g >
</g>
<g >
</g>
<g >
</g>
<g >
</g>
<g >
</g>
<g >
</g>
<g >
</g>
<g >
</g>
<g >
</g>
<g >
</g>
<g >
</g>
<g >
</g>
<g >
</g>
<g >
</g>
<g >
</g>
<g >
</g>
<g >
</g>
<g >
</g>
<g >
</g>
<g >
</g>
<g >
</g>
<g >
</g>
<g >
</g>
<g >
</g>
<g >
</g>
<g >
</g>
<g >
</g>
<g >
</g>
<g >
</g>
<g >
</g>
<g >
</g>
<g >
</g>
<g >
</g>
<g >
</g>
<g >
</g>
<g >
</g>
<g >
</g>
<g >
</g>
<g >
</g>
<g >
</g>
<g >
</g>
<g >
</g>
</g> 
</svg>
